<svg width="457" height="87" xmlns="http://www.w3.org/2000/svg" xmlns:xlink="http://www.w3.org/1999/xlink" xml:space="preserve" overflow="hidden"><defs><clipPath id="clip0"><rect x="422" y="281" width="457" height="87"/></clipPath></defs><g clip-path="url(#clip0)" transform="translate(-422 -281)"><path d="M97.2027 9.5955 97.2027 0 62.3821 0 62.3821 9.5955 97.2027 9.5955" fill="#EA0029" transform="matrix(1 0 0 1.00697 422 281.191)"/><path d="M33.3688 84.023C31.5086 84.9985 28.1967 85.9966 23.7506 85.9966 9.48208 86.0193 0 75.4483 0 55.6902 0 37.7015 9.95845 24.2043 25.8829 24.2043 29.4217 24.2043 31.7355 25.0663 33.3688 25.9283L33.3688 36.3858C32.0757 35.864 29.036 35.0474 26.1551 35.0474 17.5804 35.0474 13.157 44.3707 13.157 55.4407 13.157 67.713 18.1022 75.2215 26.1551 75.2215 28.5824 75.2215 31.4406 74.7451 33.3688 73.7924L33.3688 84.023" transform="matrix(1 0 0 1.00697 422 281.191)"/><path d="M84.2272 75.471 84.2499 54.2838C79.1232 54.3745 69.8226 55.781 69.8226 66.2385 69.8226 73.0211 73.4294 75.471 76.333 75.471L84.2272 75.471 84.2272 75.471ZM97.2027 70.6846C97.2027 75.3576 97.4976 81.2782 98.1327 85.2707 98.1327 85.2707 77.6487 85.2707 72.3859 85.2707 63.7659 85.2707 57.2781 78.1251 57.2781 67.5995 57.2781 52.1514 70.3217 45.641 83.9096 45.5276L83.9096 44.4614C83.9096 38.2005 81.4597 33.7998 74.9266 33.7998 70.6392 33.7998 65.7167 35.0474 62.4729 37.1344L62.4729 28.1287C65.4218 26.2685 70.4804 23.8413 77.8075 23.8413 93.2783 23.8413 97.2254 33.8905 97.2254 46.6845L97.2254 70.6846" transform="matrix(1 0 0 1.00697 422 281.191)"/><path d="M155.116 75.4256 147.449 75.4256C141.914 75.4256 138.715 67.1005 138.715 55.1004 138.715 44.3707 141.097 34.8886 147.766 34.8886 151.645 34.8886 154.345 39.1533 154.912 43.9851 155.093 45.21 155.093 46.5484 155.093 47.6826L155.093 75.4256 155.116 75.4256ZM168.25 70.7073 168.228 6.14747 155.139 6.14747 155.139 30.261 154.889 30.261C152.984 26.1098 149.331 23.7279 144.386 23.7279 134.677 23.7279 125.626 33.8451 125.626 54.9189 125.626 73.0211 132.159 85.2707 143.774 85.2707L169.203 85.2934C168.545 81.3009 168.25 75.3803 168.25 70.7073" transform="matrix(1 0 0 1.00697 422 281.191)"/><path d="M225.71 49.3159C225.801 39.675 222.647 33.9359 217.974 33.9359 212.258 33.9359 209.672 42.261 209.422 49.3159L225.71 49.3159 225.71 49.3159ZM209.377 58.6846C209.513 72.1137 215.751 75.7659 222.761 75.7659 227.162 75.7659 231.789 74.7905 234.466 73.6336L234.466 83.1157C230.7 84.885 225.846 85.9285 220.356 85.9285 204.863 85.9285 196.56 74.6997 196.56 56.0985 196.56 36.227 206.088 24.1362 218.905 24.1362 231.54 24.1362 237.914 35.5465 237.914 51.6524 237.914 55.0777 237.755 57.0059 237.551 58.6619L209.377 58.6846" transform="matrix(1 0 0 1.00697 422 281.191)"/><path d="M279.608 35.2969 279.608 85.2707 266.451 85.2707 266.451 42.1249C266.451 35.3423 266.111 30.0342 265.907 24.7033L291.858 24.7033C301.884 24.7033 307.827 31.985 307.827 45.9132L307.827 85.2707 294.648 85.2707 294.648 47.1609C294.648 41.1495 293.377 35.2969 287.638 35.2969L279.608 35.2969" transform="matrix(1 0 0 1.00697 422 281.191)"/><path d="M369.121 84.023C367.26 84.9985 363.926 85.9966 359.502 85.9966 345.234 85.9966 335.775 75.4483 335.775 55.6902 335.775 37.7015 345.733 24.2043 361.635 24.2043 365.174 24.2043 367.487 25.0663 369.121 25.9283L369.121 36.3858C367.805 35.864 364.788 35.0474 361.884 35.0474 353.31 35.0474 348.909 44.3934 348.909 55.4407 348.909 67.713 353.854 75.2215 361.884 75.2215 364.312 75.2215 367.17 74.7451 369.121 73.7924L369.121 84.023" transform="matrix(1 0 0 1.00697 422 281.191)"/><path d="M405.302 49.3159C405.574 42.261 408.16 33.9359 413.877 33.9359 418.55 33.9359 421.726 39.675 421.612 49.3159L405.302 49.3159 405.302 49.3159ZM433.794 51.6524C433.794 35.5465 427.42 24.1362 414.784 24.1362 401.968 24.1362 392.418 36.227 392.418 56.0985 392.418 74.6997 400.743 85.9285 416.213 85.9285 421.703 85.9285 426.58 84.8624 430.323 83.1157L430.323 73.6336C427.646 74.7905 422.996 75.7659 418.618 75.7659 411.609 75.7659 405.37 72.1137 405.234 58.6846L433.454 58.6619C433.658 57.0059 433.794 55.0777 433.794 51.6524" transform="matrix(1 0 0 1.00697 422 281.191)"/><path d="M440.123 8.96034C440.123 4.31004 443.911 0.521741 448.561 0.521741 453.212 0.521741 457 4.31004 457 8.96034 457 13.6106 453.212 17.3989 448.561 17.3989 443.911 17.3989 440.123 13.6106 440.123 8.96034ZM454.936 8.96034C454.936 5.01325 452.077 2.15502 448.561 2.15502 445.023 2.15502 442.187 5.01325 442.187 8.96034 442.187 12.9074 445.045 15.7657 448.561 15.7657 452.1 15.7657 454.936 12.9074 454.936 8.96034ZM445.318 4.12856 448.879 4.12856C451.17 4.12856 452.418 4.92252 452.418 6.94143 452.418 8.57471 451.488 9.36866 449.922 9.50477L452.486 13.7014 450.671 13.7014 448.198 9.57282 447.132 9.57282 447.132 13.7014 445.363 13.7014 445.363 4.12856ZM447.087 8.23444 448.652 8.23444C449.696 8.23444 450.626 8.09833 450.626 6.80532 450.626 5.69379 449.582 5.48963 448.675 5.48963L447.087 5.48963 447.087 8.23444Z" transform="matrix(1 0 0 1.00697 422 281.191)"/></g></svg>