<?xml version="1.0" standalone="no"?>
<!DOCTYPE svg PUBLIC "-//W3C//DTD SVG 20010904//EN"
 "http://www.w3.org/TR/2001/REC-SVG-20010904/DTD/svg10.dtd">
<svg version="1.0" xmlns="http://www.w3.org/2000/svg"
 width="128.000000pt" height="128.000000pt" viewBox="0 0 128.000000 128.000000"
 preserveAspectRatio="xMidYMid meet">

<g transform="translate(0.000000,128.000000) scale(0.100000,-0.100000)"
fill="#000000" stroke="none">
<path d="M0 640 l0 -640 640 0 640 0 0 640 0 640 -640 0 -640 0 0 -640z m1228
90 l2 -494 -92 -93 -93 -93 -497 0 -498 0 0 590 0 590 588 -2 587 -3 3 -495z"/>
<path d="M395 870 c-4 -6 -44 -117 -90 -248 -46 -130 -88 -249 -94 -264 l-11
-28 53 0 52 0 25 71 25 71 88 1 87 2 19 -50 c10 -27 22 -60 25 -72 6 -20 14
-23 61 -23 l54 0 -33 93 c-18 50 -61 174 -96 275 l-62 182 -49 0 c-26 0 -51
-5 -54 -10z m80 -230 c14 -40 25 -77 25 -82 0 -4 -25 -8 -55 -8 -30 0 -55 3
-55 7 0 15 52 164 56 160 2 -2 15 -37 29 -77z"/>
<path d="M957 814 c-4 -4 -7 -40 -7 -80 l0 -72 -31 15 c-38 19 -102 12 -137
-14 -47 -35 -63 -80 -60 -165 3 -85 19 -115 78 -156 26 -17 45 -22 81 -20 26
2 45 7 41 12 -3 5 2 7 11 3 9 -3 16 -3 16 1 -4 23 3 24 14 2 10 -19 20 -25 45
-25 l32 0 -2 250 -3 250 -35 3 c-20 2 -39 0 -43 -4z m-23 -223 c25 -27 31
-100 13 -144 -26 -61 -94 -71 -122 -18 -19 38 -30 101 -16 101 6 0 8 6 5 14
-8 20 13 56 38 65 28 10 63 3 82 -18z"/>
<path d="M258 313 c12 -2 32 -2 45 0 12 2 2 4 -23 4 -25 0 -35 -2 -22 -4z"/>
<path d="M643 313 c15 -2 37 -2 50 0 12 2 0 4 -28 4 -27 0 -38 -2 -22 -4z"/>
</g>
</svg>
